<svg width="169" height="68" viewBox="0 0 169 68" fill="none" xmlns="http://www.w3.org/2000/svg">
<g clip-path="url(#clip0_2143_392)">
<path fill-rule="evenodd" clip-rule="evenodd" d="M6.00001 1.99827H163.405C165.614 1.99827 167.405 3.78931 167.405 5.99878V58.2447C167.405 60.4541 165.614 62.2447 163.405 62.2447H6.00001C3.79084 62.2447 1.99995 60.4541 1.99995 58.2447V5.99878C1.99995 3.78931 3.79084 1.99827 6.00001 1.99827Z" fill="white"/>
<path fill-rule="evenodd" clip-rule="evenodd" d="M6.00001 6.7514H163.405C165.614 6.7514 167.405 8.5428 167.405 10.7518V62.9982C167.405 65.2072 165.614 66.9982 163.405 66.9982H6.00001C3.79084 66.9982 1.99995 65.2072 1.99995 62.9982V10.7518C1.99995 8.5428 3.79084 6.7514 6.00001 6.7514Z" fill="#18CFAB"/>
<path d="M33.3336 40.05V42H25.2036V31.5H33.1386V33.45H27.6186V35.73H32.4936V37.62H27.6186V40.05H33.3336ZM41.7796 42L39.2446 38.355L36.7546 42H33.9646L37.8496 36.66L34.1596 31.5H36.9196L39.3346 34.905L41.7046 31.5H44.3296L40.6696 36.57L44.5846 42H41.7796ZM50.0807 31.5C51.0107 31.5 51.8157 31.655 52.4957 31.965C53.1857 32.275 53.7157 32.715 54.0857 33.285C54.4557 33.855 54.6407 34.53 54.6407 35.31C54.6407 36.08 54.4557 36.755 54.0857 37.335C53.7157 37.905 53.1857 38.345 52.4957 38.655C51.8157 38.955 51.0107 39.105 50.0807 39.105H47.9657V42H45.5357V31.5H50.0807ZM49.9457 37.125C50.6757 37.125 51.2307 36.97 51.6107 36.66C51.9907 36.34 52.1807 35.89 52.1807 35.31C52.1807 34.72 51.9907 34.27 51.6107 33.96C51.2307 33.64 50.6757 33.48 49.9457 33.48H47.9657V37.125H49.9457ZM56.3755 31.5H58.8055V40.02H64.0705V42H56.3755V31.5ZM70.3375 42.18C69.2475 42.18 68.2625 41.945 67.3825 41.475C66.5125 41.005 65.8275 40.36 65.3275 39.54C64.8375 38.71 64.5925 37.78 64.5925 36.75C64.5925 35.72 64.8375 34.795 65.3275 33.975C65.8275 33.145 66.5125 32.495 67.3825 32.025C68.2625 31.555 69.2475 31.32 70.3375 31.32C71.4275 31.32 72.4075 31.555 73.2775 32.025C74.1475 32.495 74.8325 33.145 75.3325 33.975C75.8325 34.795 76.0825 35.72 76.0825 36.75C76.0825 37.78 75.8325 38.71 75.3325 39.54C74.8325 40.36 74.1475 41.005 73.2775 41.475C72.4075 41.945 71.4275 42.18 70.3375 42.18ZM70.3375 40.11C70.9575 40.11 71.5175 39.97 72.0175 39.69C72.5175 39.4 72.9075 39 73.1875 38.49C73.4775 37.98 73.6225 37.4 73.6225 36.75C73.6225 36.1 73.4775 35.52 73.1875 35.01C72.9075 34.5 72.5175 34.105 72.0175 33.825C71.5175 33.535 70.9575 33.39 70.3375 33.39C69.7175 33.39 69.1575 33.535 68.6575 33.825C68.1575 34.105 67.7625 34.5 67.4725 35.01C67.1925 35.52 67.0525 36.1 67.0525 36.75C67.0525 37.4 67.1925 37.98 67.4725 38.49C67.7625 39 68.1575 39.4 68.6575 39.69C69.1575 39.97 69.7175 40.11 70.3375 40.11ZM84.5987 42L82.5737 39.075H82.4537H80.3387V42H77.9087V31.5H82.4537C83.3837 31.5 84.1887 31.655 84.8687 31.965C85.5587 32.275 86.0887 32.715 86.4587 33.285C86.8287 33.855 87.0137 34.53 87.0137 35.31C87.0137 36.09 86.8237 36.765 86.4437 37.335C86.0737 37.895 85.5437 38.325 84.8537 38.625L87.2087 42H84.5987ZM84.5537 35.31C84.5537 34.72 84.3637 34.27 83.9837 33.96C83.6037 33.64 83.0487 33.48 82.3187 33.48H80.3387V37.14H82.3187C83.0487 37.14 83.6037 36.98 83.9837 36.66C84.3637 36.34 84.5537 35.89 84.5537 35.31ZM97.069 40.05V42H88.939V31.5H96.874V33.45H91.354V35.73H96.229V37.62H91.354V40.05H97.069ZM112.881 31.5V42H110.886L105.651 35.625V42H103.251V31.5H105.261L110.481 37.875V31.5H112.881ZM120.45 42.18C119.36 42.18 118.375 41.945 117.495 41.475C116.625 41.005 115.94 40.36 115.44 39.54C114.95 38.71 114.705 37.78 114.705 36.75C114.705 35.72 114.95 34.795 115.44 33.975C115.94 33.145 116.625 32.495 117.495 32.025C118.375 31.555 119.36 31.32 120.45 31.32C121.54 31.32 122.52 31.555 123.39 32.025C124.26 32.495 124.945 33.145 125.445 33.975C125.945 34.795 126.195 35.72 126.195 36.75C126.195 37.78 125.945 38.71 125.445 39.54C124.945 40.36 124.26 41.005 123.39 41.475C122.52 41.945 121.54 42.18 120.45 42.18ZM120.45 40.11C121.07 40.11 121.63 39.97 122.13 39.69C122.63 39.4 123.02 39 123.3 38.49C123.59 37.98 123.735 37.4 123.735 36.75C123.735 36.1 123.59 35.52 123.3 35.01C123.02 34.5 122.63 34.105 122.13 33.825C121.63 33.535 121.07 33.39 120.45 33.39C119.83 33.39 119.27 33.535 118.77 33.825C118.27 34.105 117.875 34.5 117.585 35.01C117.305 35.52 117.165 36.1 117.165 36.75C117.165 37.4 117.305 37.98 117.585 38.49C117.875 39 118.27 39.4 118.77 39.69C119.27 39.97 119.83 40.11 120.45 40.11ZM143.539 31.5L140.104 42H137.494L135.184 34.89L132.799 42H130.204L126.754 31.5H129.274L131.644 38.88L134.119 31.5H136.369L138.769 38.94L141.214 31.5H143.539Z" fill="white"/>
</g>
<defs>
<clipPath id="clip0_2143_392">
<rect width="169" height="68" fill="white"/>
</clipPath>
</defs>
</svg>
