<svg width="168" height="68" viewBox="0 0 168 68" fill="none" xmlns="http://www.w3.org/2000/svg">
<g clip-path="url(#clip0_2143_388)">
<path fill-rule="evenodd" clip-rule="evenodd" d="M5.5944 1.99827H163C165.209 1.99827 167 3.78931 167 5.99878V58.2447C167 60.4541 165.209 62.2447 163 62.2447H5.5944C3.38537 62.2447 1.59449 60.4541 1.59449 58.2447V5.99878C1.59449 3.78931 3.38537 1.99827 5.5944 1.99827Z" fill="white"/>
<path fill-rule="evenodd" clip-rule="evenodd" d="M5.5944 6.7514H163C165.209 6.7514 167 8.5428 167 10.7518V62.9982C167 65.2072 165.209 66.9982 163 66.9982H5.5944C3.38537 66.9982 1.59449 65.2072 1.59449 62.9982V10.7518C1.59449 8.5428 3.38537 6.7514 5.5944 6.7514Z" fill="#00CBF6"/>
<path d="M23.2954 31.5C24.2254 31.5 25.0304 31.655 25.7104 31.965C26.4004 32.275 26.9304 32.715 27.3004 33.285C27.6704 33.855 27.8554 34.53 27.8554 35.31C27.8554 36.08 27.6704 36.755 27.3004 37.335C26.9304 37.905 26.4004 38.345 25.7104 38.655C25.0304 38.955 24.2254 39.105 23.2954 39.105H21.1804V42H18.7504V31.5H23.2954ZM23.1604 37.125C23.8904 37.125 24.4454 36.97 24.8254 36.66C25.2054 36.34 25.3954 35.89 25.3954 35.31C25.3954 34.72 25.2054 34.27 24.8254 33.96C24.4454 33.64 23.8904 33.48 23.1604 33.48H21.1804V37.125H23.1604ZM34.2113 42.18C32.7113 42.18 31.5413 41.765 30.7013 40.935C29.8713 40.105 29.4563 38.92 29.4563 37.38V31.5H31.8863V37.29C31.8863 39.17 32.6663 40.11 34.2263 40.11C34.9863 40.11 35.5663 39.885 35.9663 39.435C36.3663 38.975 36.5663 38.26 36.5663 37.29V31.5H38.9663V37.38C38.9663 38.92 38.5463 40.105 37.7063 40.935C36.8763 41.765 35.7113 42.18 34.2113 42.18ZM48.0576 42L46.0326 39.075H45.9126H43.7976V42H41.3676V31.5H45.9126C46.8426 31.5 47.6476 31.655 48.3276 31.965C49.0176 32.275 49.5476 32.715 49.9176 33.285C50.2876 33.855 50.4726 34.53 50.4726 35.31C50.4726 36.09 50.2826 36.765 49.9026 37.335C49.5326 37.895 49.0026 38.325 48.3126 38.625L50.6676 42H48.0576ZM48.0126 35.31C48.0126 34.72 47.8226 34.27 47.4426 33.96C47.0626 33.64 46.5076 33.48 45.7776 33.48H43.7976V37.14H45.7776C46.5076 37.14 47.0626 36.98 47.4426 36.66C47.8226 36.34 48.0126 35.89 48.0126 35.31ZM57.4228 42.18C56.3528 42.18 55.3828 41.95 54.5128 41.49C53.6528 41.02 52.9728 40.375 52.4728 39.555C51.9828 38.725 51.7378 37.79 51.7378 36.75C51.7378 35.71 51.9828 34.78 52.4728 33.96C52.9728 33.13 53.6528 32.485 54.5128 32.025C55.3828 31.555 56.3578 31.32 57.4378 31.32C58.3478 31.32 59.1678 31.48 59.8978 31.8C60.6378 32.12 61.2578 32.58 61.7578 33.18L60.1978 34.62C59.4878 33.8 58.6078 33.39 57.5578 33.39C56.9078 33.39 56.3278 33.535 55.8178 33.825C55.3078 34.105 54.9078 34.5 54.6178 35.01C54.3378 35.52 54.1978 36.1 54.1978 36.75C54.1978 37.4 54.3378 37.98 54.6178 38.49C54.9078 39 55.3078 39.4 55.8178 39.69C56.3278 39.97 56.9078 40.11 57.5578 40.11C58.6078 40.11 59.4878 39.695 60.1978 38.865L61.7578 40.305C61.2578 40.915 60.6378 41.38 59.8978 41.7C59.1578 42.02 58.3328 42.18 57.4228 42.18ZM73.0288 31.5V42H70.5988V37.695H65.8288V42H63.3988V31.5H65.8288V35.64H70.5988V31.5H73.0288ZM82.4281 39.75H77.5531L76.6231 42H74.1331L78.8131 31.5H81.2131L85.9081 42H83.3581L82.4281 39.75ZM81.6631 37.905L79.9981 33.885L78.3331 37.905H81.6631ZM90.4474 42.18C89.6174 42.18 88.8124 42.07 88.0324 41.85C87.2624 41.62 86.6424 41.325 86.1724 40.965L86.9974 39.135C87.4474 39.465 87.9824 39.73 88.6024 39.93C89.2224 40.13 89.8424 40.23 90.4624 40.23C91.1524 40.23 91.6624 40.13 91.9924 39.93C92.3224 39.72 92.4874 39.445 92.4874 39.105C92.4874 38.855 92.3874 38.65 92.1874 38.49C91.9974 38.32 91.7474 38.185 91.4374 38.085C91.1374 37.985 90.7274 37.875 90.2074 37.755C89.4074 37.565 88.7524 37.375 88.2424 37.185C87.7324 36.995 87.2924 36.69 86.9224 36.27C86.5624 35.85 86.3824 35.29 86.3824 34.59C86.3824 33.98 86.5474 33.43 86.8774 32.94C87.2074 32.44 87.7024 32.045 88.3624 31.755C89.0324 31.465 89.8474 31.32 90.8074 31.32C91.4774 31.32 92.1324 31.4 92.7724 31.56C93.4124 31.72 93.9724 31.95 94.4524 32.25L93.7024 34.095C92.7324 33.545 91.7624 33.27 90.7924 33.27C90.1124 33.27 89.6074 33.38 89.2774 33.6C88.9574 33.82 88.7974 34.11 88.7974 34.47C88.7974 34.83 88.9824 35.1 89.3524 35.28C89.7324 35.45 90.3074 35.62 91.0774 35.79C91.8774 35.98 92.5324 36.17 93.0424 36.36C93.5524 36.55 93.9874 36.85 94.3474 37.26C94.7174 37.67 94.9024 38.225 94.9024 38.925C94.9024 39.525 94.7324 40.075 94.3924 40.575C94.0624 41.065 93.5624 41.455 92.8924 41.745C92.2224 42.035 91.4074 42.18 90.4474 42.18ZM104.693 40.05V42H96.5629V31.5H104.498V33.45H98.9779V35.73H103.853V37.62H98.9779V40.05H104.693ZM120.504 31.5V42H118.509L113.274 35.625V42H110.874V31.5H112.884L118.104 37.875V31.5H120.504ZM128.074 42.18C126.984 42.18 125.999 41.945 125.119 41.475C124.249 41.005 123.564 40.36 123.064 39.54C122.574 38.71 122.329 37.78 122.329 36.75C122.329 35.72 122.574 34.795 123.064 33.975C123.564 33.145 124.249 32.495 125.119 32.025C125.999 31.555 126.984 31.32 128.074 31.32C129.164 31.32 130.144 31.555 131.014 32.025C131.884 32.495 132.569 33.145 133.069 33.975C133.569 34.795 133.819 35.72 133.819 36.75C133.819 37.78 133.569 38.71 133.069 39.54C132.569 40.36 131.884 41.005 131.014 41.475C130.144 41.945 129.164 42.18 128.074 42.18ZM128.074 40.11C128.694 40.11 129.254 39.97 129.754 39.69C130.254 39.4 130.644 39 130.924 38.49C131.214 37.98 131.359 37.4 131.359 36.75C131.359 36.1 131.214 35.52 130.924 35.01C130.644 34.5 130.254 34.105 129.754 33.825C129.254 33.535 128.694 33.39 128.074 33.39C127.454 33.39 126.894 33.535 126.394 33.825C125.894 34.105 125.499 34.5 125.209 35.01C124.929 35.52 124.789 36.1 124.789 36.75C124.789 37.4 124.929 37.98 125.209 38.49C125.499 39 125.894 39.4 126.394 39.69C126.894 39.97 127.454 40.11 128.074 40.11ZM151.163 31.5L147.728 42H145.118L142.808 34.89L140.423 42H137.828L134.378 31.5H136.898L139.268 38.88L141.743 31.5H143.993L146.393 38.94L148.838 31.5H151.163Z" fill="white"/>
</g>
<defs>
<clipPath id="clip0_2143_388">
<rect width="168" height="68" fill="white"/>
</clipPath>
</defs>
</svg>
